<svg version="1.1" id="Layer_1" xmlns="http://www.w3.org/2000/svg" xmlns:xlink="http://www.w3.org/1999/xlink" x="0px" y="0px"
	 width="100%" viewBox="0 0 1080 1080" enable-background="new 0 0 1080 1080" xml:space="preserve">
<path fill="#FF9600" opacity="1.000000" stroke="none" 
	d="
M576.000000,1081.000000 
	C384.022095,1081.000000 192.544189,1081.000000 1.033147,1081.000000 
	C1.033147,721.063660 1.033147,361.127289 1.033147,1.095460 
	C360.894806,1.095460 720.789612,1.095460 1080.842285,1.095460 
	C1080.842285,360.999939 1080.842285,720.999939 1080.842285,1081.000000 
	C912.793457,1081.000000 744.646729,1081.000000 576.000000,1081.000000 
M296.416992,581.367249 
	C298.104828,583.517700 299.354309,586.463928 301.558044,587.677795 
	C310.121796,592.394897 319.458527,592.911072 329.780029,591.268860 
	C330.858337,591.276978 331.936615,591.285095 333.723511,591.644043 
	C339.395325,590.827454 345.292603,590.697083 350.653870,588.935425 
	C353.844055,587.887207 356.191254,584.273621 359.120209,581.426331 
	C359.300201,581.184265 359.533295,581.015625 360.561371,580.888489 
	C361.663513,580.030029 363.121674,579.392883 363.813721,578.279541 
	C372.450073,564.386292 370.088104,549.098877 369.164948,533.162537 
	C369.238525,531.458130 369.312103,529.753723 369.968750,527.620789 
	C370.562561,518.165771 371.264740,508.714722 371.609680,499.250671 
	C371.651581,498.100555 369.770111,496.880280 368.166779,495.346283 
	C361.156525,494.634827 354.152924,493.833008 347.128540,493.312988 
	C346.118347,493.238190 345.007660,494.520782 343.241608,495.390106 
	C342.534790,497.416473 341.232666,499.437500 341.214325,501.470093 
	C341.052063,519.441284 341.155426,537.414612 341.097290,555.387085 
	C341.074158,562.543030 336.851776,568.493347 330.547485,570.623352 
	C325.056549,572.478577 316.055542,564.976379 315.907562,558.125610 
	C315.717773,549.340698 315.785339,540.548035 315.870911,531.759949 
	C315.951324,523.506653 316.008759,515.245483 316.422699,507.005157 
	C316.921844,497.067657 313.362732,495.583374 305.735107,496.094971 
	C301.096375,496.406097 296.419434,496.115479 291.760315,496.162262 
	C286.016937,496.219910 284.389862,497.912628 284.460510,503.688110 
	C284.670044,520.812744 285.554565,537.964539 284.848877,555.050964 
	C284.462738,564.399780 289.652374,571.034241 292.737122,578.741333 
	C293.109528,579.671753 295.113373,579.949341 296.467255,580.548157 
	C296.467255,580.548157 296.476746,580.655579 296.416992,581.367249 
M893.980774,501.999329 
	C893.980774,501.999329 894.028259,502.038147 893.846252,501.359711 
	C890.172363,499.757507 886.584290,497.907684 882.808533,496.599579 
	C871.510071,492.685303 860.393738,494.495483 849.656921,498.688507 
	C839.088074,502.816010 830.212097,508.838928 824.235352,519.305847 
	C812.956970,539.057251 814.319519,564.200562 830.109009,579.276428 
	C840.238159,588.947937 852.385437,596.025757 867.512573,595.582520 
	C880.048828,595.215149 892.123962,593.573486 902.462769,585.772034 
	C904.522583,584.217712 905.764404,581.586914 907.810974,580.006165 
	C919.773071,570.766663 922.988159,557.619446 923.027039,543.725403 
	C923.045410,537.141907 921.166565,530.055603 918.298279,524.085449 
	C914.587280,516.361267 908.758179,509.852356 901.723389,504.485718 
	C899.158630,502.529083 897.038513,501.270081 893.980774,501.999329 
M689.499268,471.207794 
	C732.658325,471.203522 775.817444,471.230774 818.976257,471.124115 
	C821.864563,471.116974 825.775452,471.090485 827.451660,469.364532 
	C833.278320,463.365021 838.329590,456.612396 844.328857,449.356262 
	C841.491272,449.227814 839.893066,449.092133 838.294861,449.092102 
	C634.330505,449.089844 430.366180,449.097687 226.401825,449.103638 
	C223.402512,449.103729 220.395996,449.213959 217.405792,449.044434 
	C214.112701,448.857758 213.018265,450.172791 213.220108,453.464539 
	C213.500031,458.029327 213.531799,462.638641 213.232712,467.200226 
	C212.997910,470.781189 214.190140,471.989594 217.751678,471.763519 
	C221.897202,471.500305 226.075043,471.673584 230.236893,471.756042 
	C237.465988,471.899261 237.509491,471.959503 237.503738,479.001831 
	C237.484970,501.997345 237.442917,524.992859 237.431717,547.988403 
	C237.425705,560.319031 237.473633,572.649658 237.475845,584.980286 
	C237.476318,587.606873 237.459106,590.208496 241.127335,590.218689 
	C248.256943,590.238464 255.386658,590.224426 262.833282,590.224426 
	C262.966156,588.716797 263.176666,587.433777 263.178192,586.150513 
	C263.221130,550.323914 263.246918,514.497314 263.264832,478.670746 
	C263.268555,471.239807 263.249207,471.240234 270.572388,471.239655 
	C409.881317,471.229034 549.190247,471.218323 689.499268,471.207794 
M431.635132,586.247620 
	C435.788757,586.214294 439.962769,585.916077 444.089447,586.233215 
	C447.260590,586.476990 448.956909,585.700867 449.913239,582.477478 
	C454.928986,565.571289 460.121246,548.717346 465.263977,531.848877 
	C466.039642,529.304504 466.877472,526.779053 467.686523,524.244873 
	C468.268890,524.341614 468.851257,524.438354 469.433624,524.535095 
	C469.433624,545.865295 469.433624,567.195496 469.433624,588.882935 
	C482.742065,588.882935 495.064056,588.535095 507.356323,588.990295 
	C517.633179,589.370850 526.629578,585.852661 535.406616,581.377380 
	C543.375366,577.314209 547.452209,570.523560 547.458740,561.570923 
	C547.465454,552.410339 543.087891,545.743530 535.148010,541.317810 
	C533.905518,540.625244 532.715698,539.838379 531.078125,538.835999 
	C532.524597,537.958679 533.468689,537.368408 534.429199,536.806152 
	C546.186890,529.923401 547.740234,512.916870 537.376831,504.033844 
	C531.306152,498.830353 524.180359,496.430450 516.220459,496.421021 
	C497.565979,496.398926 478.910950,496.446960 460.257477,496.300781 
	C457.102417,496.276093 455.925446,497.567017 455.204102,500.418030 
	C452.550873,510.904419 449.699463,521.340820 446.901886,531.790405 
	C445.200958,538.143860 443.462067,544.487061 441.740234,550.834900 
	C440.239136,549.240906 439.640442,547.596252 439.231750,545.905701 
	C435.712585,531.349426 432.238770,516.782166 428.727325,502.224030 
	C427.248322,496.092163 426.911957,496.304749 420.507324,496.835999 
	C413.615753,497.407715 406.648071,497.139130 399.714600,497.090637 
	C396.969299,497.071442 394.226715,496.657410 391.110199,496.391327 
	C389.077606,527.436523 387.093323,557.744446 385.084717,588.423584 
	C394.087097,588.423584 402.320068,588.423584 411.377136,588.423584 
	C411.377136,567.102722 411.377136,546.055115 411.377136,525.007507 
	C412.702209,525.667480 412.939423,526.404724 413.122803,527.155090 
	C417.506256,545.089111 421.865631,563.028992 426.284027,580.954407 
	C426.893829,583.428406 426.911224,586.582947 431.635132,586.247620 
M794.531860,497.661530 
	C792.532898,497.616272 790.516602,497.722229 788.538330,497.496063 
	C783.574951,496.928711 780.178528,498.526581 777.414307,503.056335 
	C771.610413,512.567200 765.190796,521.702881 758.995422,530.973511 
	C758.178711,532.195618 757.194336,533.305725 756.287659,534.467651 
	C755.826538,534.285522 755.365417,534.103333 754.904297,533.921143 
	C754.904297,522.064392 754.904297,510.207642 754.904297,498.330017 
	C746.888977,498.330017 739.609741,498.330017 732.041138,498.330017 
	C732.041138,528.480591 732.041138,558.380920 732.041138,588.320557 
	C740.487366,588.320557 748.559570,588.320557 756.993958,588.320557 
	C756.993958,580.927551 757.413940,573.912537 756.875854,566.971802 
	C756.338013,560.034607 760.579651,556.987366 765.485901,553.662598 
	C766.604431,555.164917 767.573486,556.302063 768.363647,557.552307 
	C782.861633,580.493042 797.301270,603.470825 811.880005,626.359985 
	C813.240479,628.496155 815.331360,631.518433 817.288818,631.683044 
	C824.754883,632.310852 832.305176,631.936523 840.017151,631.936523 
	C839.712891,630.935730 839.679443,630.590942 839.517090,630.324829 
	C821.227173,600.328491 802.949402,570.324646 784.592712,540.369263 
	C782.887634,537.586853 782.587646,535.373779 784.987671,532.795105 
	C787.817993,529.754089 790.361389,526.436218 792.916687,523.150879 
	C799.295166,514.950195 805.610046,506.700073 812.570801,497.664551 
	C806.096741,497.664551 800.807983,497.664551 794.531860,497.661530 
M560.855713,589.559509 
	C566.185913,589.542664 571.522156,589.367065 576.844116,589.568115 
	C580.065125,589.689819 581.744629,588.646179 582.421814,585.378113 
	C583.331787,580.986633 584.783813,576.709778 585.772705,572.331604 
	C586.430908,569.418152 587.846802,568.128601 590.946228,568.243286 
	C596.436096,568.446289 601.941772,568.470886 607.432678,568.302856 
	C610.723877,568.202209 612.223755,569.672302 612.984924,572.696289 
	C614.039917,576.886780 615.228882,581.059143 616.678406,585.126038 
	C617.166016,586.494141 618.590759,588.504883 619.643677,588.540222 
	C628.011230,588.821167 636.392334,588.696777 644.673401,588.696777 
	C644.767944,587.376709 644.889771,587.023010 644.800049,586.735168 
	C635.888672,558.143982 627.010437,529.541992 617.881470,501.020294 
	C617.449585,499.670807 614.805176,498.249023 613.152283,498.201050 
	C604.332642,497.945129 595.494141,498.318665 586.675964,498.039307 
	C583.154236,497.927765 581.796326,499.094116 580.813477,502.375458 
	C572.555237,529.947632 564.105042,557.462341 555.739929,585.002625 
	C555.339600,586.320801 555.195496,587.716858 554.827637,589.615601 
	C557.032043,589.615601 558.505005,589.615601 560.855713,589.559509 
M665.372620,499.932037 
	C664.727905,499.438782 664.087402,498.522461 663.437866,498.515961 
	C654.095947,498.422913 644.752869,498.452301 635.055542,498.452301 
	C640.873413,509.172546 645.884766,519.737305 652.095215,529.542542 
	C661.729980,544.754272 667.386475,560.713623 665.178955,578.945679 
	C664.901672,581.235474 665.199890,583.607117 665.355042,585.932617 
	C665.450012,587.355469 665.780884,588.762573 665.990234,590.078857 
	C674.765686,590.078857 683.048096,590.078857 691.903931,590.078857 
	C691.903931,579.646912 692.122986,569.523682 691.811646,559.416809 
	C691.655640,554.354553 692.820618,549.973206 695.455933,545.736938 
	C699.060303,539.943054 702.459961,534.020386 705.887268,528.117981 
	C711.543152,518.377808 717.150879,508.609741 723.176514,498.164337 
	C714.024475,498.164337 705.603638,498.312805 697.192505,498.091339 
	C693.825928,498.002686 692.070801,499.074432 690.944519,502.307159 
	C687.823975,511.263458 684.409302,520.117737 681.069763,528.996826 
	C680.595703,530.257080 679.893066,531.431335 678.703735,533.850464 
	C674.066040,521.929626 669.918945,511.269867 665.372620,499.932037 
M397.375458,619.601013 
	C396.561768,617.077576 396.021423,614.414124 394.828064,612.085205 
	C394.152008,610.765869 392.404694,609.995544 391.139862,608.977905 
	C390.381744,610.277893 389.113037,611.519043 388.955414,612.888184 
	C388.329987,618.320801 387.985565,623.789978 387.697784,629.254028 
	C387.635864,630.429749 388.243225,631.640747 388.542297,632.835449 
	C389.111908,632.786926 389.681519,632.738403 390.251129,632.689819 
	C390.736267,627.818176 391.221405,622.946594 391.706543,618.074951 
	C392.191345,617.982605 392.676147,617.890320 393.160950,617.798035 
	C394.257416,620.409424 395.266663,623.062012 396.475494,625.620361 
	C397.630707,628.065186 398.993652,630.411926 400.265259,632.801819 
	C401.708374,630.397095 403.088654,627.951416 404.617554,625.602478 
	C405.585419,624.115540 406.774841,622.772766 407.864929,621.365356 
	C408.700104,623.050842 409.776337,624.664185 410.308167,626.440491 
	C410.944489,628.565735 411.115540,630.830261 411.488098,633.034424 
	C411.935547,632.956970 412.382965,632.879578 412.830414,632.802124 
	C412.830414,626.629639 413.024780,620.447205 412.710724,614.290710 
	C412.617798,612.469238 411.091400,610.720886 410.221924,608.939026 
	C408.868683,610.349121 407.056213,611.539612 406.255524,613.213989 
	C404.461853,616.964844 403.171539,620.956421 401.676239,624.849976 
	C401.162567,624.845032 400.648895,624.840149 400.135223,624.835266 
	C399.320435,623.339478 398.505615,621.843750 397.375458,619.601013 
M581.852173,626.604919 
	C582.211975,620.967957 582.658020,615.333862 582.849426,609.691162 
	C582.882507,608.714905 581.836670,607.701965 581.289185,606.705933 
	C580.574280,607.735352 579.318115,608.725708 579.240417,609.801270 
	C578.941284,613.942261 579.015564,618.110413 578.957520,622.268555 
	C578.903687,626.124878 577.767212,629.548157 573.368042,629.706360 
	C568.669495,629.875366 567.343689,626.151611 566.978088,622.301331 
	C566.664734,619.001404 566.987183,615.643372 566.724976,612.335083 
	C566.626953,611.097900 565.670776,609.928772 565.105896,608.728577 
	C564.446777,609.838806 563.279053,610.923462 563.221497,612.064026 
	C563.029297,615.876160 563.080322,619.718323 563.328125,623.530212 
	C563.607239,627.823669 565.256775,631.228271 570.007507,632.264648 
	C575.587036,633.481750 578.850525,632.154663 581.852173,626.604919 
M646.562012,607.904358 
	C645.325073,608.569214 643.038147,609.196716 643.012939,609.904663 
	C642.750305,617.280701 642.851135,624.669617 642.851135,632.742188 
	C647.001831,632.538513 650.461792,632.629150 653.840088,632.147217 
	C660.321289,631.222656 664.064331,626.421082 664.022766,619.581604 
	C663.986267,613.572632 659.505066,608.689941 653.224182,607.988403 
	C651.259949,607.768982 649.255493,607.908813 646.562012,607.904358 
M734.059326,607.581543 
	C732.409058,607.727417 730.698059,607.642822 729.119141,608.059326 
	C722.421875,609.825745 718.841858,617.143982 720.939941,624.527344 
	C722.698303,630.715210 729.808289,634.205261 736.218018,632.026855 
	C741.083191,630.373474 744.216248,625.730713 744.313965,620.030090 
	C744.423218,613.655334 741.775696,610.215149 734.059326,607.581543 
M323.841766,621.530029 
	C324.985321,621.236023 326.128876,620.942078 328.558105,620.317627 
	C326.510834,619.538940 325.810486,619.117432 325.066742,619.016846 
	C322.046814,618.608398 318.006287,619.285156 318.322235,614.533020 
	C318.603149,610.307922 322.412628,611.762756 324.977356,611.304565 
	C325.914581,611.137146 326.795288,610.653137 327.701782,610.313538 
	C324.766266,609.211975 321.985443,609.222107 319.240143,608.914673 
	C315.944672,608.545654 314.766968,609.878967 314.851929,613.114441 
	C314.995575,618.584473 314.820221,624.062256 314.901367,629.534973 
	C314.917084,630.594666 315.447418,632.544983 315.817017,632.563660 
	C320.087372,632.778809 324.372498,632.701111 328.653687,632.701111 
	C328.668213,632.172729 328.682739,631.644287 328.697266,631.115906 
	C326.920410,630.934631 325.147308,630.682922 323.365845,630.588257 
	C320.576630,630.439941 318.513489,629.530212 318.256744,626.352722 
	C317.972290,622.832458 319.928101,621.613892 323.841766,621.530029 
M491.401031,610.656921 
	C495.100586,610.261963 496.405060,611.928833 496.206421,615.590271 
	C495.963440,620.069763 496.045197,624.580322 496.277649,629.062378 
	C496.333893,630.147217 497.532532,631.172913 498.205902,632.225769 
	C498.842651,631.114380 499.951813,630.034241 500.027771,628.885742 
	C500.257782,625.407043 500.307709,621.883728 500.020538,618.411377 
	C499.609894,613.446228 500.502197,609.869446 506.605164,610.342651 
	C506.730957,610.352356 506.899078,609.816223 507.266418,609.119263 
	C500.700104,609.119263 494.373718,609.119263 488.047302,609.119263 
	C488.019165,609.434143 487.990997,609.749084 487.962830,610.063965 
	C488.854919,610.252441 489.747009,610.440979 491.401031,610.656921 
M247.749908,631.995728 
	C248.506973,629.752625 249.823563,627.531372 249.912354,625.262085 
	C250.144714,619.323608 249.223267,613.129761 255.775635,610.524048 
	C250.933258,610.524048 245.947052,610.524048 241.673767,610.524048 
	C248.119095,612.791565 246.821289,619.253479 246.881149,625.249268 
	C246.902405,627.379028 247.204407,629.505920 247.749908,631.995728 
z"/>
<path fill="#FFFDF8" opacity="1.000000" stroke="none" 
	d="
M688.999268,471.207703 
	C549.190247,471.218323 409.881317,471.229034 270.572388,471.239655 
	C263.249207,471.240234 263.268555,471.239807 263.264832,478.670746 
	C263.246918,514.497314 263.221130,550.323914 263.178192,586.150513 
	C263.176666,587.433777 262.966156,588.716797 262.833282,590.224426 
	C255.386658,590.224426 248.256943,590.238464 241.127335,590.218689 
	C237.459106,590.208496 237.476318,587.606873 237.475845,584.980286 
	C237.473633,572.649658 237.425705,560.319031 237.431717,547.988403 
	C237.442917,524.992859 237.484970,501.997345 237.503738,479.001831 
	C237.509491,471.959503 237.465988,471.899261 230.236893,471.756042 
	C226.075043,471.673584 221.897202,471.500305 217.751678,471.763519 
	C214.190140,471.989594 212.997910,470.781189 213.232712,467.200226 
	C213.531799,462.638641 213.500031,458.029327 213.220108,453.464539 
	C213.018265,450.172791 214.112701,448.857758 217.405792,449.044434 
	C220.395996,449.213959 223.402512,449.103729 226.401825,449.103638 
	C430.366180,449.097687 634.330505,449.089844 838.294861,449.092102 
	C839.893066,449.092133 841.491272,449.227814 844.328857,449.356262 
	C838.329590,456.612396 833.278320,463.365021 827.451660,469.364532 
	C825.775452,471.090485 821.864563,471.116974 818.976257,471.124115 
	C775.817444,471.230774 732.658325,471.203522 688.999268,471.207703 
z"/>
<path fill="#221D17" opacity="1.000000" stroke="none" 
	d="
M431.236969,586.281982 
	C426.911224,586.582947 426.893829,583.428406 426.284027,580.954407 
	C421.865631,563.028992 417.506256,545.089111 413.122803,527.155090 
	C412.939423,526.404724 412.702209,525.667480 411.377136,525.007507 
	C411.377136,546.055115 411.377136,567.102722 411.377136,588.423584 
	C402.320068,588.423584 394.087097,588.423584 385.084717,588.423584 
	C387.093323,557.744446 389.077606,527.436523 391.110199,496.391327 
	C394.226715,496.657410 396.969299,497.071442 399.714600,497.090637 
	C406.648071,497.139130 413.615753,497.407715 420.507324,496.835999 
	C426.911957,496.304749 427.248322,496.092163 428.727325,502.224030 
	C432.238770,516.782166 435.712585,531.349426 439.231750,545.905701 
	C439.640442,547.596252 440.239136,549.240906 441.740234,550.834900 
	C443.462067,544.487061 445.200958,538.143860 446.901886,531.790405 
	C449.699463,521.340820 452.550873,510.904419 455.204102,500.418030 
	C455.925446,497.567017 457.102417,496.276093 460.257477,496.300781 
	C478.910950,496.446960 497.565979,496.398926 516.220459,496.421021 
	C524.180359,496.430450 531.306152,498.830353 537.376831,504.033844 
	C547.740234,512.916870 546.186890,529.923401 534.429199,536.806152 
	C533.468689,537.368408 532.524597,537.958679 531.078125,538.835999 
	C532.715698,539.838379 533.905518,540.625244 535.148010,541.317810 
	C543.087891,545.743530 547.465454,552.410339 547.458740,561.570923 
	C547.452209,570.523560 543.375366,577.314209 535.406616,581.377380 
	C526.629578,585.852661 517.633179,589.370850 507.356323,588.990295 
	C495.064056,588.535095 482.742065,588.882935 469.433624,588.882935 
	C469.433624,567.195496 469.433624,545.865295 469.433624,524.535095 
	C468.851257,524.438354 468.268890,524.341614 467.686523,524.244873 
	C466.877472,526.779053 466.039642,529.304504 465.263977,531.848877 
	C460.121246,548.717346 454.928986,565.571289 449.913239,582.477478 
	C448.956909,585.700867 447.260590,586.476990 444.089447,586.233215 
	C439.962769,585.916077 435.788757,586.214294 431.236969,586.281982 
M496.779449,559.550415 
	C496.776031,562.542297 496.519684,565.566162 496.891541,568.510681 
	C497.044037,569.718079 498.588745,571.736816 499.438080,571.705505 
	C504.188263,571.530212 509.056000,571.363770 513.617310,570.173828 
	C517.836243,569.073181 519.915466,565.356445 519.904419,560.968445 
	C519.893188,556.521362 517.595703,552.965088 513.370239,551.959351 
	C508.194794,550.727417 502.767639,550.553040 496.783173,549.842285 
	C496.783173,553.643677 496.783173,556.111267 496.779449,559.550415 
M496.686646,531.516235 
	C502.124481,531.142761 507.619568,531.126648 512.979858,530.268677 
	C516.492310,529.706543 517.895142,526.611206 517.833374,523.117432 
	C517.771729,519.630249 516.265076,516.678406 512.773682,516.039795 
	C508.106323,515.185974 503.299683,514.972534 498.543518,514.852051 
	C497.804626,514.833374 496.410126,516.742615 496.356903,517.811951 
	C496.143494,522.100708 496.338715,526.409790 496.686646,531.516235 
z"/>
<path fill="#221D16" opacity="1.000000" stroke="none" 
	d="
M795.025513,497.663025 
	C800.807983,497.664551 806.096741,497.664551 812.570801,497.664551 
	C805.610046,506.700073 799.295166,514.950195 792.916687,523.150879 
	C790.361389,526.436218 787.817993,529.754089 784.987671,532.795105 
	C782.587646,535.373779 782.887634,537.586853 784.592712,540.369263 
	C802.949402,570.324646 821.227173,600.328491 839.517090,630.324829 
	C839.679443,630.590942 839.712891,630.935730 840.017151,631.936523 
	C832.305176,631.936523 824.754883,632.310852 817.288818,631.683044 
	C815.331360,631.518433 813.240479,628.496155 811.880005,626.359985 
	C797.301270,603.470825 782.861633,580.493042 768.363647,557.552307 
	C767.573486,556.302063 766.604431,555.164917 765.485901,553.662598 
	C760.579651,556.987366 756.338013,560.034607 756.875854,566.971802 
	C757.413940,573.912537 756.993958,580.927551 756.993958,588.320557 
	C748.559570,588.320557 740.487366,588.320557 732.041138,588.320557 
	C732.041138,558.380920 732.041138,528.480591 732.041138,498.330017 
	C739.609741,498.330017 746.888977,498.330017 754.904297,498.330017 
	C754.904297,510.207642 754.904297,522.064392 754.904297,533.921143 
	C755.365417,534.103333 755.826538,534.285522 756.287659,534.467651 
	C757.194336,533.305725 758.178711,532.195618 758.995422,530.973511 
	C765.190796,521.702881 771.610413,512.567200 777.414307,503.056335 
	C780.178528,498.526581 783.574951,496.928711 788.538330,497.496063 
	C790.516602,497.722229 792.532898,497.616272 795.025513,497.663025 
z"/>
<path fill="#221D17" opacity="1.000000" stroke="none" 
	d="
M333.014923,591.293213 
	C331.936615,591.285095 330.858337,591.276978 328.948944,591.189331 
	C316.586639,590.603760 305.045074,590.129150 296.476746,580.655579 
	C296.476746,580.655579 296.467255,580.548157 296.296112,580.225342 
	C293.088470,572.959778 287.920074,566.164734 287.427368,559.045959 
	C286.108215,539.986633 286.811096,520.788391 286.661438,501.645721 
	C286.641388,499.081146 287.670868,498.161652 290.250122,498.218170 
	C296.407593,498.353058 302.577850,498.429657 308.727905,498.171417 
	C312.272400,498.022614 313.317871,499.265625 313.272522,502.733246 
	C313.102753,515.718262 313.133057,528.707153 313.218750,541.693665 
	C313.256042,547.348145 313.230408,553.046509 313.908386,558.643188 
	C314.894806,566.786133 321.193970,572.280701 328.610321,572.189331 
	C336.457458,572.092651 341.626160,566.963623 342.617584,558.166870 
	C342.840424,556.189758 342.804657,554.178162 342.805939,552.182312 
	C342.816925,535.198853 342.881104,518.214905 342.746277,501.232513 
	C342.719086,497.808746 343.756531,496.430084 347.288361,496.568634 
	C352.608002,496.777405 357.960571,496.880615 363.265045,496.523254 
	C367.982178,496.205414 369.748352,497.639191 369.510559,502.613556 
	C369.106049,511.074799 369.390625,519.568970 369.385681,528.049316 
	C369.312103,529.753723 369.238525,531.458130 369.103821,534.042480 
	C368.950684,540.087708 368.644928,545.259705 368.810455,550.416687 
	C369.169769,561.610657 366.596283,571.865906 359.819489,580.920349 
	C359.533295,581.015625 359.300201,581.184265 358.686707,581.727173 
	C350.944611,588.124084 342.220398,590.364075 333.014923,591.293213 
z"/>
<path fill="#221D17" opacity="1.000000" stroke="none" 
	d="
M560.416870,589.587524 
	C558.505005,589.615601 557.032043,589.615601 554.827637,589.615601 
	C555.195496,587.716858 555.339600,586.320801 555.739929,585.002625 
	C564.105042,557.462341 572.555237,529.947632 580.813477,502.375458 
	C581.796326,499.094116 583.154236,497.927765 586.675964,498.039307 
	C595.494141,498.318665 604.332642,497.945129 613.152283,498.201050 
	C614.805176,498.249023 617.449585,499.670807 617.881470,501.020294 
	C627.010437,529.541992 635.888672,558.143982 644.800049,586.735168 
	C644.889771,587.023010 644.767944,587.376709 644.673401,588.696777 
	C636.392334,588.696777 628.011230,588.821167 619.643677,588.540222 
	C618.590759,588.504883 617.166016,586.494141 616.678406,585.126038 
	C615.228882,581.059143 614.039917,576.886780 612.984924,572.696289 
	C612.223755,569.672302 610.723877,568.202209 607.432678,568.302856 
	C601.941772,568.470886 596.436096,568.446289 590.946228,568.243286 
	C587.846802,568.128601 586.430908,569.418152 585.772705,572.331604 
	C584.783813,576.709778 583.331787,580.986633 582.421814,585.378113 
	C581.744629,588.646179 580.065125,589.689819 576.844116,589.568115 
	C571.522156,589.367065 566.185913,589.542664 560.416870,589.587524 
M595.258850,527.796997 
	C593.627747,534.645386 591.996643,541.493774 590.307251,548.586975 
	C596.518188,548.586975 601.907837,548.586975 607.931152,548.586975 
	C604.792480,538.035217 601.805298,527.992859 598.818115,517.950500 
	C598.477173,517.965576 598.136230,517.980652 597.795349,517.995728 
	C597.024963,520.999878 596.254639,524.004028 595.258850,527.796997 
z"/>
<path fill="#221D16" opacity="1.000000" stroke="none" 
	d="
M665.572266,500.271057 
	C669.918945,511.269867 674.066040,521.929626 678.703735,533.850464 
	C679.893066,531.431335 680.595703,530.257080 681.069763,528.996826 
	C684.409302,520.117737 687.823975,511.263458 690.944519,502.307159 
	C692.070801,499.074432 693.825928,498.002686 697.192505,498.091339 
	C705.603638,498.312805 714.024475,498.164337 723.176514,498.164337 
	C717.150879,508.609741 711.543152,518.377808 705.887268,528.117981 
	C702.459961,534.020386 699.060303,539.943054 695.455933,545.736938 
	C692.820618,549.973206 691.655640,554.354553 691.811646,559.416809 
	C692.122986,569.523682 691.903931,579.646912 691.903931,590.078857 
	C683.048096,590.078857 674.765686,590.078857 665.990234,590.078857 
	C665.780884,588.762573 665.450012,587.355469 665.355042,585.932617 
	C665.199890,583.607117 664.901672,581.235474 665.178955,578.945679 
	C667.386475,560.713623 661.729980,544.754272 652.095215,529.542542 
	C645.884766,519.737305 640.873413,509.172546 635.055542,498.452301 
	C644.752869,498.452301 654.095947,498.422913 663.437866,498.515961 
	C664.087402,498.522461 664.727905,499.438782 665.572266,500.271057 
z"/>
<path fill="#FDCB66" opacity="1.000000" stroke="none" 
	d="
M893.927490,501.968872 
	C897.038513,501.270081 899.158630,502.529083 901.723389,504.485718 
	C908.758179,509.852356 914.587280,516.361267 918.298279,524.085449 
	C921.166565,530.055603 923.045410,537.141907 923.027039,543.725403 
	C922.988159,557.619446 919.773071,570.766663 907.810974,580.006165 
	C905.764404,581.586914 904.522583,584.217712 902.462769,585.772034 
	C892.123962,593.573486 880.048828,595.215149 867.512573,595.582520 
	C852.385437,596.025757 840.238159,588.947937 830.109009,579.276428 
	C814.319519,564.200562 812.956970,539.057251 824.235352,519.305847 
	C830.212097,508.838928 839.088074,502.816010 849.656921,498.688507 
	C860.393738,494.495483 871.510071,492.685303 882.808533,496.599579 
	C886.584290,497.907684 890.172363,499.757507 893.537781,501.642609 
	C890.837891,501.233887 888.487671,500.255676 886.047241,499.904907 
	C879.018616,498.894623 871.709290,496.561768 864.953674,497.609070 
	C850.880371,499.790741 837.703491,504.807892 828.981079,517.424988 
	C823.197998,525.790161 819.264282,534.643372 819.095337,545.056213 
	C818.990112,551.542053 821.354980,556.981567 823.656799,562.891907 
	C828.042419,574.153137 836.066040,581.437256 845.874878,587.202881 
	C854.898132,592.506714 864.919617,592.986084 875.239136,592.692688 
	C889.240173,592.294678 899.546082,585.029358 908.730957,575.849243 
	C914.492920,570.090332 917.115967,562.416565 919.412842,554.459900 
	C923.663086,539.736694 918.288696,527.614441 910.097839,516.536926 
	C905.871155,510.820618 899.389954,506.771362 893.927490,501.968872 
z"/>
<path fill="#CB8112" opacity="1.000000" stroke="none" 
	d="
M369.677216,527.835083 
	C369.390625,519.568970 369.106049,511.074799 369.510559,502.613556 
	C369.748352,497.639191 367.982178,496.205414 363.265045,496.523254 
	C357.960571,496.880615 352.608002,496.777405 347.288361,496.568634 
	C343.756531,496.430084 342.719086,497.808746 342.746277,501.232513 
	C342.881104,518.214905 342.816925,535.198853 342.805939,552.182312 
	C342.804657,554.178162 342.840424,556.189758 342.617584,558.166870 
	C341.626160,566.963623 336.457458,572.092651 328.610321,572.189331 
	C321.193970,572.280701 314.894806,566.786133 313.908386,558.643188 
	C313.230408,553.046509 313.256042,547.348145 313.218750,541.693665 
	C313.133057,528.707153 313.102753,515.718262 313.272522,502.733246 
	C313.317871,499.265625 312.272400,498.022614 308.727905,498.171417 
	C302.577850,498.429657 296.407593,498.353058 290.250122,498.218170 
	C287.670868,498.161652 286.641388,499.081146 286.661438,501.645721 
	C286.811096,520.788391 286.108215,539.986633 287.427368,559.045959 
	C287.920074,566.164734 293.088470,572.959778 296.243042,580.216003 
	C295.113373,579.949341 293.109528,579.671753 292.737122,578.741333 
	C289.652374,571.034241 284.462738,564.399780 284.848877,555.050964 
	C285.554565,537.964539 284.670044,520.812744 284.460510,503.688110 
	C284.389862,497.912628 286.016937,496.219910 291.760315,496.162262 
	C296.419434,496.115479 301.096375,496.406097 305.735107,496.094971 
	C313.362732,495.583374 316.921844,497.067657 316.422699,507.005157 
	C316.008759,515.245483 315.951324,523.506653 315.870911,531.759949 
	C315.785339,540.548035 315.717773,549.340698 315.907562,558.125610 
	C316.055542,564.976379 325.056549,572.478577 330.547485,570.623352 
	C336.851776,568.493347 341.074158,562.543030 341.097290,555.387085 
	C341.155426,537.414612 341.052063,519.441284 341.214325,501.470093 
	C341.232666,499.437500 342.534790,497.416473 343.970581,495.441467 
	C352.726410,495.559357 360.753235,495.625946 368.780060,495.692505 
	C369.770111,496.880280 371.651581,498.100555 371.609680,499.250671 
	C371.264740,508.714722 370.562561,518.165771 369.677216,527.835083 
z"/>
<path fill="#FDE9AE" opacity="1.000000" stroke="none" 
	d="
M397.533142,619.974487 
	C398.505615,621.843750 399.320435,623.339478 400.135223,624.835266 
	C400.648895,624.840149 401.162567,624.845032 401.676239,624.849976 
	C403.171539,620.956421 404.461853,616.964844 406.255524,613.213989 
	C407.056213,611.539612 408.868683,610.349121 410.221924,608.939026 
	C411.091400,610.720886 412.617798,612.469238 412.710724,614.290710 
	C413.024780,620.447205 412.830414,626.629639 412.830414,632.802124 
	C412.382965,632.879578 411.935547,632.956970 411.488098,633.034424 
	C411.115540,630.830261 410.944489,628.565735 410.308167,626.440491 
	C409.776337,624.664185 408.700104,623.050842 407.864929,621.365356 
	C406.774841,622.772766 405.585419,624.115540 404.617554,625.602478 
	C403.088654,627.951416 401.708374,630.397095 400.265259,632.801819 
	C398.993652,630.411926 397.630707,628.065186 396.475494,625.620361 
	C395.266663,623.062012 394.257416,620.409424 393.160950,617.798035 
	C392.676147,617.890320 392.191345,617.982605 391.706543,618.074951 
	C391.221405,622.946594 390.736267,627.818176 390.251129,632.689819 
	C389.681519,632.738403 389.111908,632.786926 388.542297,632.835449 
	C388.243225,631.640747 387.635864,630.429749 387.697784,629.254028 
	C387.985565,623.789978 388.329987,618.320801 388.955414,612.888184 
	C389.113037,611.519043 390.381744,610.277893 391.139862,608.977905 
	C392.404694,609.995544 394.152008,610.765869 394.828064,612.085205 
	C396.021423,614.414124 396.561768,617.077576 397.533142,619.974487 
z"/>
<path fill="#492606" opacity="1.000000" stroke="none" 
	d="
M581.766174,626.964966 
	C578.850525,632.154663 575.587036,633.481750 570.007507,632.264648 
	C565.256775,631.228271 563.607239,627.823669 563.328125,623.530212 
	C563.080322,619.718323 563.029297,615.876160 563.221497,612.064026 
	C563.279053,610.923462 564.446777,609.838806 565.105896,608.728577 
	C565.670776,609.928772 566.626953,611.097900 566.724976,612.335083 
	C566.987183,615.643372 566.664734,619.001404 566.978088,622.301331 
	C567.343689,626.151611 568.669495,629.875366 573.368042,629.706360 
	C577.767212,629.548157 578.903687,626.124878 578.957520,622.268555 
	C579.015564,618.110413 578.941284,613.942261 579.240417,609.801270 
	C579.318115,608.725708 580.574280,607.735352 581.289185,606.705933 
	C581.836670,607.701965 582.882507,608.714905 582.849426,609.691162 
	C582.658020,615.333862 582.211975,620.967957 581.766174,626.964966 
z"/>
<path fill="#492606" opacity="1.000000" stroke="none" 
	d="
M646.915771,607.894287 
	C649.255493,607.908813 651.259949,607.768982 653.224182,607.988403 
	C659.505066,608.689941 663.986267,613.572632 664.022766,619.581604 
	C664.064331,626.421082 660.321289,631.222656 653.840088,632.147217 
	C650.461792,632.629150 647.001831,632.538513 642.851135,632.742188 
	C642.851135,624.669617 642.750305,617.280701 643.012939,609.904663 
	C643.038147,609.196716 645.325073,608.569214 646.915771,607.894287 
M649.598206,610.314880 
	C648.657104,611.219116 646.957764,612.079651 646.902710,613.034912 
	C646.626526,617.827271 646.637268,622.652832 646.915405,627.445312 
	C646.965454,628.308105 648.674500,629.666931 649.727966,629.781555 
	C655.839294,630.446350 660.494324,626.497070 661.005188,620.529846 
	C661.522156,614.492432 657.864197,610.947693 649.598206,610.314880 
z"/>
<path fill="#492606" opacity="1.000000" stroke="none" 
	d="
M734.444092,607.643494 
	C741.775696,610.215149 744.423218,613.655334 744.313965,620.030090 
	C744.216248,625.730713 741.083191,630.373474 736.218018,632.026855 
	C729.808289,634.205261 722.698303,630.715210 720.939941,624.527344 
	C718.841858,617.143982 722.421875,609.825745 729.119141,608.059326 
	C730.698059,607.642822 732.409058,607.727417 734.444092,607.643494 
M730.967224,629.785095 
	C738.005127,629.672119 742.180176,622.839355 739.602966,615.652039 
	C737.624084,610.133301 731.418335,608.638000 727.161316,612.654236 
	C721.866943,617.649170 723.283447,625.449341 730.967224,629.785095 
z"/>
<path fill="#FDE9AE" opacity="1.000000" stroke="none" 
	d="
M323.460571,621.559570 
	C319.928101,621.613892 317.972290,622.832458 318.256744,626.352722 
	C318.513489,629.530212 320.576630,630.439941 323.365845,630.588257 
	C325.147308,630.682922 326.920410,630.934631 328.697266,631.115906 
	C328.682739,631.644287 328.668213,632.172729 328.653687,632.701111 
	C324.372498,632.701111 320.087372,632.778809 315.817017,632.563660 
	C315.447418,632.544983 314.917084,630.594666 314.901367,629.534973 
	C314.820221,624.062256 314.995575,618.584473 314.851929,613.114441 
	C314.766968,609.878967 315.944672,608.545654 319.240143,608.914673 
	C321.985443,609.222107 324.766266,609.211975 327.701782,610.313538 
	C326.795288,610.653137 325.914581,611.137146 324.977356,611.304565 
	C322.412628,611.762756 318.603149,610.307922 318.322235,614.533020 
	C318.006287,619.285156 322.046814,618.608398 325.066742,619.016846 
	C325.810486,619.117432 326.510834,619.538940 328.558105,620.317627 
	C326.128876,620.942078 324.985321,621.236023 323.460571,621.559570 
z"/>
<path fill="#492606" opacity="1.000000" stroke="none" 
	d="
M491.020050,610.643188 
	C489.747009,610.440979 488.854919,610.252441 487.962830,610.063965 
	C487.990997,609.749084 488.019165,609.434143 488.047302,609.119263 
	C494.373718,609.119263 500.700104,609.119263 507.266418,609.119263 
	C506.899078,609.816223 506.730957,610.352356 506.605164,610.342651 
	C500.502197,609.869446 499.609894,613.446228 500.020538,618.411377 
	C500.307709,621.883728 500.257782,625.407043 500.027771,628.885742 
	C499.951813,630.034241 498.842651,631.114380 498.205902,632.225769 
	C497.532532,631.172913 496.333893,630.147217 496.277649,629.062378 
	C496.045197,624.580322 495.963440,620.069763 496.206421,615.590271 
	C496.405060,611.928833 495.100586,610.261963 491.020050,610.643188 
z"/>
<path fill="#FDE9AE" opacity="1.000000" stroke="none" 
	d="
M247.564072,631.814941 
	C247.204407,629.505920 246.902405,627.379028 246.881149,625.249268 
	C246.821289,619.253479 248.119095,612.791565 241.673767,610.524048 
	C245.947052,610.524048 250.933258,610.524048 255.775635,610.524048 
	C249.223267,613.129761 250.144714,619.323608 249.912354,625.262085 
	C249.823563,627.531372 248.506973,629.752625 247.564072,631.814941 
z"/>
<path fill="#CB8112" opacity="1.000000" stroke="none" 
	d="
M360.190430,580.904419 
	C366.596283,571.865906 369.169769,561.610657 368.810455,550.416687 
	C368.644928,545.259705 368.950684,540.087708 369.151367,534.467407 
	C370.088104,549.098877 372.450073,564.386292 363.813721,578.279541 
	C363.121674,579.392883 361.663513,580.030029 360.190430,580.904419 
z"/>
<path fill="#CB8112" opacity="1.000000" stroke="none" 
	d="
M296.446869,581.011414 
	C305.045074,590.129150 316.586639,590.603760 328.546539,591.233398 
	C319.458527,592.911072 310.121796,592.394897 301.558044,587.677795 
	C299.354309,586.463928 298.104828,583.517700 296.446869,581.011414 
z"/>
<path fill="#CB8112" opacity="1.000000" stroke="none" 
	d="
M333.369202,591.468628 
	C342.220398,590.364075 350.944611,588.124084 358.585327,581.920654 
	C356.191254,584.273621 353.844055,587.887207 350.653870,588.935425 
	C345.292603,590.697083 339.395325,590.827454 333.369202,591.468628 
z"/>
<path fill="#F49C1D" opacity="1.000000" stroke="none" 
	d="
M368.473419,495.519409 
	C360.753235,495.625946 352.726410,495.559357 344.321533,495.333984 
	C345.007660,494.520782 346.118347,493.238190 347.128540,493.312988 
	C354.152924,493.833008 361.156525,494.634827 368.473419,495.519409 
z"/>
<path fill="#F1930C" opacity="1.000000" stroke="none" 
	d="
M496.781311,559.064575 
	C496.783173,556.111267 496.783173,553.643677 496.783173,549.842285 
	C502.767639,550.553040 508.194794,550.727417 513.370239,551.959351 
	C517.595703,552.965088 519.893188,556.521362 519.904419,560.968445 
	C519.915466,565.356445 517.836243,569.073181 513.617310,570.173828 
	C509.056000,571.363770 504.188263,571.530212 499.438080,571.705505 
	C498.588745,571.736816 497.044037,569.718079 496.891541,568.510681 
	C496.519684,565.566162 496.776031,562.542297 496.781311,559.064575 
z"/>
<path fill="#F1930C" opacity="1.000000" stroke="none" 
	d="
M496.534729,531.113770 
	C496.338715,526.409790 496.143494,522.100708 496.356903,517.811951 
	C496.410126,516.742615 497.804626,514.833374 498.543518,514.852051 
	C503.299683,514.972534 508.106323,515.185974 512.773682,516.039795 
	C516.265076,516.678406 517.771729,519.630249 517.833374,523.117432 
	C517.895142,526.611206 516.492310,529.706543 512.979858,530.268677 
	C507.619568,531.126648 502.124481,531.142761 496.534729,531.113770 
z"/>
<path fill="#F1930C" opacity="1.000000" stroke="none" 
	d="
M595.371582,527.402588 
	C596.254639,524.004028 597.024963,520.999878 597.795349,517.995728 
	C598.136230,517.980652 598.477173,517.965576 598.818115,517.950500 
	C601.805298,527.992859 604.792480,538.035217 607.931152,548.586975 
	C601.907837,548.586975 596.518188,548.586975 590.307251,548.586975 
	C591.996643,541.493774 593.627747,534.645386 595.371582,527.402588 
z"/>
<path fill="#FF9600" opacity="1.000000" stroke="none" 
	d="
M893.954102,501.984100 
	C899.389954,506.771362 905.871155,510.820618 910.097839,516.536926 
	C918.288696,527.614441 923.663086,539.736694 919.412842,554.459900 
	C917.115967,562.416565 914.492920,570.090332 908.730957,575.849243 
	C899.546082,585.029358 889.240173,592.294678 875.239136,592.692688 
	C864.919617,592.986084 854.898132,592.506714 845.874878,587.202881 
	C836.066040,581.437256 828.042419,574.153137 823.656799,562.891907 
	C821.354980,556.981567 818.990112,551.542053 819.095337,545.056213 
	C819.264282,534.643372 823.197998,525.790161 828.981079,517.424988 
	C837.703491,504.807892 850.880371,499.790741 864.953674,497.609070 
	C871.709290,496.561768 879.018616,498.894623 886.047241,499.904907 
	C888.487671,500.255676 890.837891,501.233887 893.628784,501.981812 
	C894.028259,502.038147 893.980774,501.999329 893.954102,501.984100 
M869.507324,586.745850 
	C893.863892,586.429199 912.680420,567.990601 912.753052,544.368713 
	C912.822571,521.769287 893.810120,502.959961 870.492432,502.559570 
	C847.560791,502.165863 827.357788,520.563904 826.734497,542.408142 
	C826.049622,566.413025 844.263000,585.710205 869.507324,586.745850 
z"/>
<path fill="#F1930C" opacity="1.000000" stroke="none" 
	d="
M650.013794,610.297974 
	C657.864197,610.947693 661.522156,614.492432 661.005188,620.529846 
	C660.494324,626.497070 655.839294,630.446350 649.727966,629.781555 
	C648.674500,629.666931 646.965454,628.308105 646.915405,627.445312 
	C646.637268,622.652832 646.626526,617.827271 646.902710,613.034912 
	C646.957764,612.079651 648.657104,611.219116 650.013794,610.297974 
z"/>
<path fill="#F1930C" opacity="1.000000" stroke="none" 
	d="
M730.598755,629.669312 
	C723.283447,625.449341 721.866943,617.649170 727.161316,612.654236 
	C731.418335,608.638000 737.624084,610.133301 739.602966,615.652039 
	C742.180176,622.839355 738.005127,629.672119 730.598755,629.669312 
z"/>
<path fill="#FDFBF3" opacity="1.000000" stroke="none" 
	d="
M869.040649,586.741516 
	C844.263000,585.710205 826.049622,566.413025 826.734497,542.408142 
	C827.357788,520.563904 847.560791,502.165863 870.492432,502.559570 
	C893.810120,502.959961 912.822571,521.769287 912.753052,544.368713 
	C912.680420,567.990601 893.863892,586.429199 869.040649,586.741516 
M847.321106,539.749023 
	C847.838013,541.847900 848.704651,543.930542 848.803162,546.048828 
	C849.051758,551.393921 851.860168,553.245361 856.906616,553.144775 
	C862.393433,553.035522 867.894409,553.221985 873.376465,553.515808 
	C875.204529,553.613770 876.993408,554.440552 878.800232,554.934143 
	C878.667236,555.538025 878.534241,556.141968 878.401245,556.745850 
	C870.983887,556.745850 863.566345,556.706848 856.149353,556.756531 
	C848.318237,556.809021 847.576416,558.037720 850.880127,565.207703 
	C852.633789,569.013489 856.453369,569.558289 859.202026,566.394653 
	C862.983337,562.042725 874.254578,561.719971 878.555420,565.877136 
	C880.870544,568.114990 883.320190,568.330139 885.545715,566.037292 
	C887.349426,564.179199 886.570312,555.246277 885.333618,552.960388 
	C884.398682,551.232300 883.734375,548.673889 884.314758,546.942627 
	C885.840210,542.392212 888.187805,538.124146 890.061829,533.681885 
	C891.707153,529.781616 893.041809,525.830994 898.550659,526.063477 
	C899.505432,526.103821 900.680237,524.322632 901.455811,523.180542 
	C901.693054,522.831238 901.132629,521.570496 900.602600,521.132263 
	C897.963257,518.950012 887.849487,521.344788 886.760315,524.582092 
	C885.402100,528.619141 882.643921,529.768860 878.753418,529.799927 
	C870.265930,529.867615 861.779663,530.249390 853.293274,530.238953 
	C848.476868,530.233093 846.629822,532.409668 847.090210,537.677368 
	C847.197327,538.113342 847.304504,538.549255 847.321106,539.749023 
z"/>
<path fill="#F49C1D" opacity="1.000000" stroke="none" 
	d="
M847.179199,537.003845 
	C846.629822,532.409668 848.476868,530.233093 853.293274,530.238953 
	C861.779663,530.249390 870.265930,529.867615 878.753418,529.799927 
	C882.643921,529.768860 885.402100,528.619141 886.760315,524.582092 
	C887.849487,521.344788 897.963257,518.950012 900.602600,521.132263 
	C901.132629,521.570496 901.693054,522.831238 901.455811,523.180542 
	C900.680237,524.322632 899.505432,526.103821 898.550659,526.063477 
	C893.041809,525.830994 891.707153,529.781616 890.061829,533.681885 
	C888.187805,538.124146 885.840210,542.392212 884.314758,546.942627 
	C883.734375,548.673889 884.398682,551.232300 885.333618,552.960388 
	C886.570312,555.246277 887.349426,564.179199 885.545715,566.037292 
	C883.320190,568.330139 880.870544,568.114990 878.555420,565.877136 
	C874.254578,561.719971 862.983337,562.042725 859.202026,566.394653 
	C856.453369,569.558289 852.633789,569.013489 850.880127,565.207703 
	C847.576416,558.037720 848.318237,556.809021 856.149353,556.756531 
	C863.566345,556.706848 870.983887,556.745850 878.401245,556.745850 
	C878.534241,556.141968 878.667236,555.538025 878.800232,554.934143 
	C876.993408,554.440552 875.204529,553.613770 873.376465,553.515808 
	C867.894409,553.221985 862.393433,553.035522 856.906616,553.144775 
	C851.860168,553.245361 849.051758,551.393921 848.803162,546.048828 
	C848.704651,543.930542 847.838013,541.847900 847.709229,539.427246 
	C848.512634,539.367737 849.270386,539.604004 849.292664,539.896362 
	C849.777039,546.249512 853.674011,547.783752 859.243042,547.130798 
	C859.753357,547.070923 860.321411,547.503357 861.718994,548.029785 
	C859.041504,548.850098 857.244568,549.400635 854.347046,550.288330 
	C856.122742,551.244202 856.665100,551.786499 857.214966,551.794128 
	C864.199341,551.891357 871.185059,551.954224 878.169434,551.898926 
	C879.055969,551.891846 880.489807,551.376526 880.734375,550.738281 
	C883.063110,544.660522 885.194153,538.506775 887.338379,532.359619 
	C887.374939,532.254761 886.869263,531.960693 886.613220,531.759094 
	C885.318604,532.246460 884.013550,533.179443 882.738403,533.140259 
	C874.143738,532.876221 865.543396,532.569458 856.970093,531.936035 
	C852.465271,531.603271 849.211609,532.930847 847.179199,537.003845 
z"/>
<path fill="#FF9600" opacity="1.000000" stroke="none" 
	d="
M847.134705,537.340576 
	C849.211609,532.930847 852.465271,531.603271 856.970093,531.936035 
	C865.543396,532.569458 874.143738,532.876221 882.738403,533.140259 
	C884.013550,533.179443 885.318604,532.246460 886.613220,531.759094 
	C886.869263,531.960693 887.374939,532.254761 887.338379,532.359619 
	C885.194153,538.506775 883.063110,544.660522 880.734375,550.738281 
	C880.489807,551.376526 879.055969,551.891846 878.169434,551.898926 
	C871.185059,551.954224 864.199341,551.891357 857.214966,551.794128 
	C856.665100,551.786499 856.122742,551.244202 854.347046,550.288330 
	C857.244568,549.400635 859.041504,548.850098 861.718994,548.029785 
	C860.321411,547.503357 859.753357,547.070923 859.243042,547.130798 
	C853.674011,547.783752 849.777039,546.249512 849.292664,539.896362 
	C849.270386,539.604004 848.512634,539.367737 847.754517,539.045288 
	C847.304504,538.549255 847.197327,538.113342 847.134705,537.340576 
z"/>
</svg>