<?xml version="1.0" standalone="no"?>
<!DOCTYPE svg PUBLIC "-//W3C//DTD SVG 20010904//EN"
 "http://www.w3.org/TR/2001/REC-SVG-20010904/DTD/svg10.dtd">
<svg version="1.0" xmlns="http://www.w3.org/2000/svg"
 width="447.000000pt" height="559.000000pt" viewBox="0 0 447.000000 559.000000"
 preserveAspectRatio="xMidYMid meet">

<g transform="translate(0.000000,559.000000) scale(0.100000,-0.100000)"
fill="#000000" stroke="none">
<path d="M2160 5003 c-56 -20 -164 -89 -209 -134 -59 -59 -101 -177 -101 -284
0 -51 9 -62 27 -35 8 11 20 20 27 20 8 0 19 7 26 15 7 8 24 15 38 15 l26 0
-29 -30 c-21 -22 -34 -28 -52 -24 -26 7 -52 -17 -53 -48 0 -9 -10 -18 -22 -20
-56 -8 -40 -204 20 -258 16 -14 34 -38 40 -53 15 -34 16 -203 2 -212 -5 -3
-10 -17 -10 -30 0 -24 -44 -69 -97 -99 -32 -19 -277 -105 -398 -141 -172 -50
-186 -60 -219 -171 -10 -33 -33 -90 -51 -129 -61 -128 -125 -393 -125 -519 0
-39 -11 -150 -25 -246 -14 -96 -25 -199 -25 -228 0 -29 -9 -94 -21 -145 -35
-157 -47 -307 -43 -549 3 -122 9 -252 14 -288 5 -36 15 -114 24 -175 8 -60 18
-144 21 -185 13 -167 34 -254 86 -356 27 -53 49 -102 49 -109 0 -16 54 -154
81 -207 16 -32 61 -193 92 -330 l11 -48 436 0 435 0 30 136 c34 156 37 163 62
148 19 -11 35 -51 79 -196 l26 -88 383 0 382 0 11 87 c6 49 18 185 27 303 8
118 20 234 25 258 14 58 12 124 -5 279 -22 195 -60 344 -117 457 -22 43 -28
67 -24 90 4 19 -4 68 -20 126 -39 147 -64 336 -64 495 0 217 39 472 76 501 12
9 11 14 -5 33 -11 12 -23 21 -26 20 -12 -3 -65 51 -65 66 0 17 -42 95 -51 95
-16 0 -109 139 -109 163 0 28 24 47 58 47 30 0 97 -64 143 -138 44 -71 55 -82
79 -82 21 0 41 45 27 59 -8 8 -7 11 2 11 8 0 11 6 7 15 -6 17 19 21 29 5 8
-13 25 -13 25 1 0 5 -13 15 -29 20 -25 9 -29 16 -34 62 -4 38 -1 55 9 63 12 9
11 14 -6 29 -22 20 -55 110 -45 125 4 7 19 9 35 5 25 -6 28 -4 23 14 -3 12 -9
21 -13 21 -5 0 -16 3 -26 7 -11 4 -15 3 -11 -4 4 -6 1 -13 -7 -16 -9 -4 -18
14 -30 61 -44 169 -44 207 0 218 38 10 51 -10 85 -125 16 -57 37 -119 45 -139
9 -20 22 -57 28 -82 10 -38 17 -46 39 -48 l27 -3 0 75 0 75 40 -2 c45 -1 48
-6 52 -87 4 -61 31 -63 39 -3 6 51 10 56 44 56 31 0 36 36 5 44 -11 3 -20 10
-19 17 1 6 -1 24 -6 39 -5 21 -10 25 -16 16 -6 -10 -12 -9 -28 5 -20 18 -20
18 -27 -8 -8 -32 -26 -34 -39 -3 -6 12 -20 23 -33 25 -30 5 -31 7 -34 137 l-3
109 -30 7 c-31 7 -217 78 -389 148 -105 43 -199 113 -218 160 -6 14 -13 32
-17 40 -21 42 32 243 59 226 28 -18 80 98 80 178 0 44 -3 50 -28 59 l-28 11
12 71 c26 142 14 229 -41 313 -40 60 -147 152 -214 184 -60 28 -152 34 -211
12z m256 -205 c6 -7 14 -25 18 -41 5 -22 2 -29 -16 -37 -13 -5 -17 -9 -8 -9 8
-1 20 -12 27 -26 12 -28 9 -29 -57 -26 -24 1 -46 -6 -69 -23 -44 -33 -58 -33
-112 4 -24 16 -50 30 -57 30 -11 0 -11 2 0 13 7 7 21 16 31 20 34 13 32 38 -4
68 -19 15 -32 30 -29 32 3 3 36 7 73 9 38 1 73 5 78 9 15 9 111 -9 125 -23z
m57 -185 c-7 -2 -19 -2 -25 0 -7 3 -2 5 12 5 14 0 19 -2 13 -5z m114 -37 c18
-11 33 -25 33 -29 0 -5 -4 -6 -9 -2 -5 3 -16 -2 -24 -10 -22 -21 -30 -19 -67
15 -31 29 -34 30 -51 14 -18 -16 -19 -16 -19 -1 0 10 -7 17 -16 17 -8 0 -12 5
-9 10 4 6 10 8 14 6 4 -3 21 -1 37 3 37 11 71 4 111 -23z m-454 7 c-7 -2 -21
-2 -30 0 -10 3 -4 5 12 5 17 0 24 -2 18 -5z m157 -25 c0 -16 -20 -7 -30 12
-10 19 -10 20 9 8 12 -7 21 -16 21 -20z m-60 8 c0 -3 -4 -8 -10 -11 -5 -3 -10
-1 -10 4 0 6 5 11 10 11 6 0 10 -2 10 -4z m-100 -46 c0 -5 -7 -10 -15 -10 -8
0 -15 5 -15 10 0 6 7 10 15 10 8 0 15 -4 15 -10z m260 -20 c0 -5 -7 -7 -15 -4
-8 4 -12 10 -9 15 6 11 24 2 24 -11z m-80 -20 c0 -5 -4 -10 -10 -10 -5 0 -10
5 -10 10 0 6 5 10 10 10 6 0 10 -4 10 -10z m29 -74 c44 -56 40 -73 -9 -39 -14
10 -45 19 -68 19 -24 1 -51 8 -59 16 -13 14 -11 16 22 22 20 4 38 13 41 21 8
21 38 5 73 -39z m241 50 c0 -2 -8 -10 -17 -17 -16 -13 -17 -12 -4 4 13 16 21
21 21 13z m-205 -26 c14 -16 15 -20 4 -20 -16 0 -39 19 -39 32 0 14 16 9 35
-12z m88 1 c28 -18 28 -18 7 -24 -32 -8 -71 9 -64 28 8 20 23 19 57 -4z m-278
-41 c-3 -5 -14 -10 -23 -10 -15 0 -15 2 -2 10 20 13 33 13 25 0z m292 -6 c-3
-3 -12 -4 -19 -1 -8 3 -5 6 6 6 11 1 17 -2 13 -5z m8 -28 c26 -1 51 -8 61 -18
15 -15 15 -16 -9 -15 -14 1 -23 5 -20 10 2 4 -5 7 -17 7 -12 0 -25 -10 -32
-25 -6 -14 -14 -25 -18 -25 -4 0 -12 -11 -18 -25 -12 -26 -31 -25 -63 2 -9 7
-19 10 -24 6 -4 -5 -3 2 4 14 6 12 21 23 33 25 24 3 33 36 13 51 -5 4 3 5 18
1 16 -4 48 -7 72 -8z m162 -58 c-3 -7 -5 -2 -5 12 0 14 2 19 5 13 2 -7 2 -19
0 -25z m-337 -33 l25 -14 -25 -1 c-37 0 -71 11 -64 21 8 13 35 10 64 -6z m320
-49 c0 -3 -4 -8 -10 -11 -5 -3 -10 -1 -10 4 0 6 5 11 10 11 6 0 10 -2 10 -4z
m-294 -38 l28 -22 -32 -7 c-18 -4 -61 -4 -97 -2 -50 5 -64 9 -68 24 -7 26 0
29 73 29 54 0 73 -4 96 -22z m-38 -130 c18 -18 14 -28 -12 -28 -35 0 -56 10
-56 26 0 17 51 19 68 2z m-859 -1599 c19 -113 14 -355 -10 -471 -11 -57 -24
-168 -28 -248 -4 -80 -10 -151 -14 -157 -4 -6 -11 -48 -16 -93 -8 -72 -13 -87
-38 -112 l-29 -29 -13 138 c-12 131 -11 143 8 220 29 113 35 211 18 318 -15
97 -10 135 32 250 27 73 51 177 51 222 0 22 3 43 7 47 11 11 21 -16 32 -85z"/>
<path d="M3360 3468 c0 -18 -3 -43 -6 -55 -4 -13 -2 -23 3 -23 6 0 11 25 12
55 1 30 -1 55 -4 55 -3 0 -5 -15 -5 -32z"/>
<path d="M3444 3090 c7 -37 19 -55 33 -49 5 2 -2 22 -15 44 l-24 40 6 -35z"/>
<path d="M3570 3112 c0 -16 32 -52 46 -52 17 0 19 24 2 37 -19 15 -48 23 -48
15z"/>
<path d="M3156 2881 c5 -5 20 -12 34 -15 24 -7 24 -6 6 8 -21 17 -57 23 -40 7z"/>
<path d="M3576 2853 c-15 -51 -26 -162 -20 -213 4 -35 2 -65 -5 -76 -9 -17
-10 -17 -11 6 -1 23 -2 23 -9 5 -18 -42 -48 -58 -106 -56 -30 1 -65 5 -78 10
-13 5 -52 8 -87 6 -36 -2 -69 0 -75 4 -5 5 -21 11 -35 13 -14 3 -33 9 -42 13
-37 15 -16 -13 22 -30 25 -11 55 -37 76 -67 20 -27 45 -53 55 -59 11 -5 17
-14 14 -18 -2 -5 3 -19 13 -32 9 -13 40 -69 67 -123 74 -147 141 -207 270
-240 69 -19 183 -21 218 -5 34 15 63 72 87 165 38 153 21 218 -88 324 -54 53
-72 78 -95 136 -15 39 -41 86 -58 105 -17 19 -44 58 -60 86 -35 61 -46 70 -53
46z m-256 -431 c0 -13 -12 -22 -22 -16 -10 6 -1 24 13 24 5 0 9 -4 9 -8z m57
2 c-3 -3 -12 -4 -19 -1 -8 3 -5 6 6 6 11 1 17 -2 13 -5z"/>
<path d="M3230 2810 c6 -11 13 -20 16 -20 2 0 0 9 -6 20 -6 11 -13 20 -16 20
-2 0 0 -9 6 -20z"/>
<path d="M3541 2624 c0 -11 3 -14 6 -6 3 7 2 16 -1 19 -3 4 -6 -2 -5 -13z"/>
</g>
</svg>
