<?xml version="1.0" standalone="no"?>
<!DOCTYPE svg PUBLIC "-//W3C//DTD SVG 20010904//EN"
 "http://www.w3.org/TR/2001/REC-SVG-20010904/DTD/svg10.dtd">
<svg version="1.0" xmlns="http://www.w3.org/2000/svg"
 width="3840.000000pt" height="2160.000000pt" viewBox="0 0 3840.000000 2160.000000"
 preserveAspectRatio="xMidYMid meet">

<g transform="translate(0.000000,2160.000000) scale(0.100000,-0.100000)"
fill="#000000" stroke="none">
<path d="M9204 20623 c-9 -27 -31 -86 -49 -133 -38 -99 -217 -577 -238 -635
-23 -66 -375 -1004 -409 -1090 -17 -44 -43 -114 -58 -155 -15 -41 -62 -167
-105 -280 -42 -113 -88 -234 -100 -270 -13 -36 -32 -87 -43 -115 -11 -27 -70
-185 -131 -350 -62 -165 -116 -310 -121 -323 -6 -13 -26 -67 -46 -120 -20 -53
-48 -131 -64 -172 -42 -112 -112 -298 -171 -455 -29 -77 -68 -180 -87 -230
-18 -49 -44 -119 -57 -155 -13 -36 -33 -90 -45 -120 -12 -30 -39 -102 -60
-160 -21 -58 -74 -197 -116 -310 -42 -113 -94 -252 -115 -310 -22 -58 -46
-121 -54 -140 -13 -34 -225 -598 -251 -670 -7 -19 -61 -163 -120 -320 -59
-157 -119 -319 -134 -360 -15 -41 -303 -808 -639 -1704 -336 -896 -611 -1635
-611 -1643 0 -19 2402 -20 2417 0 6 6 36 82 67 167 32 85 62 166 67 179 5 13
54 143 108 290 55 146 104 277 110 291 5 14 49 131 96 260 88 240 101 275 129
345 15 39 56 148 136 365 21 58 203 546 405 1085 202 539 405 1084 452 1210
47 127 91 244 98 260 7 17 15 37 18 45 4 10 6 9 6 -6 1 -22 -57 -945 -89
-1414 -11 -162 -36 -545 -55 -850 -19 -305 -37 -582 -40 -615 -6 -59 -22 -299
-70 -1060 -14 -214 -28 -429 -31 -478 l-7 -87 1308 2 1308 3 52 140 c94 248
272 723 1543 4115 688 1834 1474 3931 1747 4660 274 729 500 1333 502 1343 5
16 -57 17 -1208 17 l-1214 0 -860 -2295 c-473 -1261 -861 -2290 -863 -2285 -2
5 6 148 17 317 12 169 30 450 41 623 20 319 33 522 70 1090 35 531 39 597 75
1160 48 759 64 994 75 1150 5 74 10 159 10 188 l0 52 -1289 0 -1289 0 -18 -47z"/>
<path d="M15976 20662 c-4 -6 -1145 -3047 -1190 -3172 -7 -19 -41 -109 -75
-200 -35 -91 -68 -181 -75 -200 -23 -63 -87 -233 -113 -300 -14 -36 -43 -112
-64 -170 -21 -58 -47 -130 -59 -160 -12 -30 -39 -102 -60 -160 -21 -58 -49
-130 -61 -160 -11 -30 -34 -89 -49 -130 -15 -41 -42 -113 -59 -160 -18 -47
-43 -114 -55 -150 -13 -36 -40 -108 -61 -160 -21 -52 -55 -142 -76 -200 -20
-58 -47 -130 -59 -160 -12 -30 -39 -102 -60 -160 -21 -58 -48 -130 -60 -160
-12 -30 -39 -102 -60 -160 -38 -104 -145 -389 -182 -485 -11 -27 -30 -79 -43
-115 -22 -63 -158 -425 -197 -525 -11 -27 -30 -79 -43 -115 -12 -36 -178 -479
-368 -985 -558 -1488 -777 -2073 -777 -2079 0 -3 547 -6 1215 -6 781 0 1215 3
1215 10 0 7 2302 6155 3681 9829 87 234 159 428 159 433 0 10 -2417 11 -2424
0z"/>
<path d="M18620 20173 c-102 -273 -197 -528 -211 -567 -14 -39 -52 -141 -84
-226 -31 -85 -72 -195 -90 -245 -18 -49 -92 -250 -164 -445 -126 -338 -222
-596 -576 -1545 -86 -231 -174 -467 -195 -525 -21 -58 -50 -134 -63 -170 -14
-36 -57 -153 -97 -260 -40 -107 -85 -229 -100 -270 -15 -41 -69 -185 -118
-320 -50 -135 -194 -522 -320 -860 -126 -338 -282 -757 -347 -930 -64 -173
-184 -495 -265 -715 -82 -220 -162 -436 -178 -480 -16 -44 -49 -132 -72 -195
-23 -63 -48 -131 -55 -150 -14 -37 -202 -540 -511 -1368 -101 -271 -184 -497
-184 -502 0 -7 440 -9 1212 -8 l1212 3 83 220 c46 121 100 263 119 315 35 94
60 159 108 283 43 109 143 371 307 807 177 467 382 1010 409 1080 10 25 52
135 93 245 42 110 107 281 145 380 38 99 133 350 212 558 92 244 146 374 151
365 5 -7 9 -74 9 -148 0 -74 4 -277 10 -450 5 -173 14 -502 20 -730 5 -228 15
-579 20 -780 11 -380 49 -1857 53 -2040 l2 -105 1735 2 c1560 2 1730 1 1690
-12 -25 -9 -196 -56 -380 -105 -184 -50 -382 -103 -440 -120 -58 -16 -188 -51
-290 -79 -102 -27 -295 -79 -430 -116 -135 -36 -267 -72 -295 -80 -27 -7 -115
-31 -195 -53 -167 -45 -450 -122 -560 -151 -41 -11 -97 -27 -125 -34 -51 -15
-194 -54 -295 -81 -30 -8 -107 -29 -170 -46 -63 -18 -171 -47 -240 -65 -69
-18 -208 -55 -310 -83 -102 -28 -234 -64 -295 -80 -160 -43 -475 -129 -680
-186 -78 -21 -247 -67 -640 -172 -49 -14 -162 -44 -250 -69 -186 -51 -565
-153 -815 -220 -96 -26 -195 -53 -220 -60 -25 -8 -99 -28 -165 -46 -66 -17
-199 -53 -295 -79 -96 -26 -278 -76 -405 -110 -126 -34 -293 -79 -370 -100
-77 -21 -207 -57 -290 -79 -424 -113 -648 -174 -760 -207 -44 -12 -143 -39
-220 -59 -77 -21 -169 -45 -205 -55 -236 -65 -501 -137 -595 -162 -161 -43
-577 -156 -675 -183 -75 -21 -607 -165 -685 -185 -16 -4 -91 -24 -165 -45 -74
-20 -157 -43 -185 -50 -27 -7 -99 -27 -160 -44 -60 -16 -155 -42 -210 -57 -55
-14 -120 -32 -145 -39 -43 -12 -170 -47 -290 -79 -30 -8 -107 -29 -170 -46
-478 -133 -780 -197 -1115 -239 -590 -75 -1157 -62 -1726 39 -129 23 -468 111
-609 158 -657 221 -1193 565 -1597 1027 -236 270 -465 654 -586 985 -157 425
-225 808 -234 1321 -10 532 48 1001 198 1594 119 473 319 1044 524 1500 105
234 175 384 207 449 22 43 44 90 49 105 l9 26 -21 -25 c-11 -14 -36 -43 -54
-65 -18 -22 -86 -103 -150 -180 -64 -77 -124 -149 -133 -160 -10 -11 -37 -45
-62 -75 -25 -30 -47 -57 -51 -60 -12 -10 -492 -614 -640 -805 -547 -705 -1073
-1444 -1544 -2170 -52 -81 -357 -572 -415 -670 -29 -49 -60 -101 -69 -115 -9
-14 -21 -34 -27 -45 -6 -11 -62 -110 -126 -220 -203 -353 -454 -831 -601
-1145 -135 -288 -153 -329 -236 -524 -348 -819 -577 -1596 -660 -2241 -39
-305 -42 -341 -48 -575 -24 -938 219 -1692 742 -2305 83 -96 243 -257 345
-345 128 -109 130 -111 200 -165 36 -28 67 -52 70 -55 31 -33 373 -264 530
-357 365 -218 785 -397 1230 -523 137 -39 186 -50 425 -99 575 -116 1308 -131
2023 -41 481 60 1022 174 1527 320 312 90 350 101 670 206 169 56 730 258 920
332 55 22 178 69 273 106 96 37 224 87 285 112 62 25 173 70 247 99 74 29 218
87 320 130 102 42 221 92 265 110 44 18 160 67 258 109 98 42 181 76 183 76 3
0 26 9 51 21 25 11 134 58 242 104 108 45 320 136 471 200 340 146 468 200
545 232 33 14 94 40 135 58 41 18 167 72 280 120 113 48 239 102 280 120 64
28 210 91 635 272 44 19 94 41 110 48 17 8 107 46 200 86 212 89 321 136 360
154 36 16 502 217 595 255 36 15 265 114 510 220 245 106 492 212 550 237 58
24 125 53 149 64 24 11 64 29 90 39 25 10 98 42 161 70 63 28 149 65 190 82
41 16 80 33 85 37 6 4 26 14 45 21 44 17 275 115 400 170 52 23 185 80 295
127 284 121 319 136 420 181 99 43 524 227 705 304 148 64 223 96 340 148 52
23 120 52 150 65 47 19 191 81 570 245 36 15 108 47 160 70 52 23 125 54 161
70 36 15 81 34 100 43 54 24 249 108 309 133 30 12 98 41 150 64 144 63 214
94 600 260 195 84 393 170 440 190 47 20 149 65 227 98 79 34 162 71 185 81
24 11 156 68 293 127 282 121 360 155 495 214 52 23 125 54 161 70 36 15 81
34 100 43 45 20 217 95 479 207 118 51 256 111 305 132 50 22 198 86 330 143
132 56 330 142 440 190 110 48 229 100 265 115 138 60 230 100 365 158 77 33
165 71 195 85 30 14 116 51 190 82 171 73 350 151 538 234 50 22 94 41 96 41
3 0 33 13 68 29 35 16 142 63 238 104 96 41 281 121 410 177 129 56 251 109
270 117 19 8 69 30 110 48 41 18 244 106 450 195 206 89 390 168 409 177 19 8
64 28 100 43 36 16 109 47 161 70 52 23 125 54 161 70 36 15 81 35 100 43 40
19 466 203 594 257 50 21 133 57 185 80 52 23 124 55 160 70 36 15 139 61 230
100 91 40 201 88 245 107 44 19 94 41 110 48 17 7 163 71 325 140 162 70 330
142 373 161 42 19 112 49 155 68 42 19 119 52 170 75 50 22 94 41 96 41 3 0
39 16 80 35 42 19 78 35 81 35 2 0 28 11 57 24 29 13 139 61 243 106 343 147
630 272 803 349 50 22 94 41 96 41 3 0 33 13 68 29 35 16 142 63 238 104 96
41 281 121 410 177 129 56 264 115 300 130 36 15 106 46 155 68 50 21 189 82
310 135 121 52 357 154 525 227 168 73 334 145 370 160 36 16 108 47 160 70
52 23 124 55 160 70 144 62 387 168 420 183 41 18 192 84 455 197 105 45 205
89 224 97 19 9 64 28 100 43 36 16 109 47 161 70 52 23 124 55 160 70 36 15
108 47 160 70 52 23 156 68 230 100 649 279 974 423 1010 446 98 61 134 129
91 168 -26 24 -117 31 -193 16 -60 -11 -337 -84 -523 -137 -49 -14 -146 -40
-215 -58 -123 -32 -569 -153 -745 -201 -49 -14 -155 -42 -235 -64 -80 -21
-188 -50 -240 -65 -52 -15 -151 -42 -220 -60 -69 -18 -226 -60 -350 -94 -124
-34 -268 -73 -320 -87 -52 -14 -115 -32 -140 -39 -25 -7 -133 -37 -240 -65
-107 -28 -215 -58 -240 -65 -25 -7 -92 -25 -150 -40 -58 -15 -161 -43 -230
-62 -69 -19 -156 -43 -195 -54 -140 -36 -182 -48 -295 -79 -63 -17 -149 -41
-190 -51 -41 -11 -156 -42 -255 -69 -99 -28 -355 -97 -570 -155 -214 -58 -437
-118 -495 -134 -58 -16 -208 -57 -335 -91 -126 -34 -342 -93 -480 -130 -137
-38 -369 -101 -515 -140 -146 -39 -364 -98 -485 -131 -121 -33 -260 -71 -310
-84 -49 -14 -146 -40 -215 -59 -69 -19 -172 -46 -230 -61 -58 -15 -123 -33
-145 -40 -22 -7 -112 -32 -200 -56 -88 -23 -216 -57 -285 -76 -69 -20 -181
-50 -250 -68 -151 -40 -538 -144 -710 -192 -69 -19 -192 -53 -275 -75 -82 -22
-179 -48 -215 -58 -36 -10 -126 -34 -200 -54 -74 -20 -143 -39 -153 -42 -25
-8 -42 -61 208 631 26 72 48 137 49 145 1 13 -164 16 -1410 20 l-1410 5 37
100 c21 55 218 584 439 1175 221 591 414 1105 428 1143 l26 67 1166 0 1166 0
354 946 c195 520 357 950 358 955 2 5 -480 9 -1162 9 -641 0 -1166 2 -1166 5
0 3 15 44 34 93 18 48 66 176 105 284 39 109 135 368 212 575 189 507 329 884
377 1019 23 60 48 129 57 152 l17 42 1228 0 1228 0 10 28 c39 103 65 170 87
225 27 70 61 157 343 904 111 292 202 536 202 542 0 8 -1045 11 -3699 11
l-3698 0 -104 -126 c-57 -69 -115 -140 -129 -157 -14 -17 -81 -98 -150 -181
-69 -83 -162 -196 -207 -251 -45 -55 -92 -112 -105 -126 -13 -15 -57 -68 -98
-119 -82 -101 -365 -445 -411 -499 -16 -19 -44 -53 -62 -75 -17 -22 -55 -67
-83 -100 -28 -34 -72 -88 -99 -121 -26 -33 -67 -82 -90 -110 -46 -54 -228
-275 -285 -345 -42 -52 -327 -397 -380 -460 -21 -25 -84 -101 -140 -170 -162
-197 -173 -210 -181 -210 -4 0 10 46 32 103 22 56 52 136 68 177 16 41 55 143
86 225 68 180 92 240 140 365 21 52 48 122 60 155 86 229 486 1283 545 1435
10 25 45 117 78 205 34 88 79 207 102 265 22 58 40 108 40 112 0 5 -552 8
-1227 8 l-1228 0 -185 -497z m6425 205 c-14 -35 -323 -862 -689 -1838 -365
-976 -971 -2594 -1346 -3595 -375 -1001 -704 -1881 -732 -1955 -27 -74 -65
-173 -83 -220 -18 -47 -47 -123 -63 -170 -17 -47 -40 -110 -52 -140 -12 -30
-39 -102 -60 -160 -21 -58 -48 -130 -60 -160 -12 -30 -38 -102 -59 -160 -21
-58 -50 -134 -64 -170 -14 -36 -42 -110 -62 -165 -21 -55 -46 -122 -57 -150
-10 -27 -46 -124 -79 -215 -33 -91 -64 -169 -68 -173 -5 -5 -11 103 -15 240
-4 136 -11 392 -16 568 -12 388 -35 1173 -55 1890 -8 292 -17 593 -20 670 -3
77 -12 388 -20 690 -9 303 -20 674 -25 825 -5 151 -10 314 -10 361 0 83 1 88
31 120 27 29 175 191 204 223 10 11 191 211 210 232 6 6 53 57 105 114 119
129 100 109 200 220 100 111 81 91 200 220 119 129 100 109 200 220 47 52 90
100 95 106 11 12 194 210 210 228 6 6 73 81 150 166 77 85 162 179 190 209 27
29 55 59 60 65 20 23 200 221 205 226 3 3 48 52 100 110 52 58 97 107 100 110
3 3 29 32 59 65 30 33 80 87 110 120 31 33 76 83 100 110 45 51 178 197 286
315 58 64 125 137 350 385 60 66 126 138 146 160 20 22 103 113 184 203 82 89
151 162 156 162 4 0 -3 -28 -16 -62z"/>
</g>
</svg>
