<?xml version="1.0" standalone="no"?>
<!DOCTYPE svg PUBLIC "-//W3C//DTD SVG 20010904//EN"
 "http://www.w3.org/TR/2001/REC-SVG-20010904/DTD/svg10.dtd">
<svg version="1.0" xmlns="http://www.w3.org/2000/svg"
 width="1718.000000pt" height="2048.000000pt" viewBox="0 0 1718.000000 2048.000000"
 preserveAspectRatio="xMidYMid meet">

<g transform="translate(0.000000,2048.000000) scale(0.100000,-0.100000)"
fill="#000000" stroke="none">
<path d="M12145 18360 c-1665 -63 -3093 -256 -4470 -605 -2442 -618 -4557
-1702 -6380 -3270 -162 -139 -357 -314 -367 -329 -11 -16 -9 -5573 2 -5902 5
-155 16 -357 25 -450 144 -1543 788 -2821 1890 -3755 436 -369 1186 -821 2410
-1452 313 -162 1203 -601 1415 -700 30 -14 109 -51 175 -82 602 -286 1742
-805 1769 -805 35 0 1423 634 2096 958 1927 926 3068 1574 3679 2089 157 132
503 480 631 633 363 436 622 864 836 1380 190 459 321 961 389 1485 53 413 49
20 52 5552 l3 5103 -22 4 c-30 7 -568 51 -923 76 -269 18 -616 38 -1075 61
-272 13 -1842 20 -2135 9z m-3095 -4541 c268 -19 453 -54 688 -131 451 -148
836 -426 1129 -815 385 -511 604 -1182 674 -2063 15 -189 15 -733 0 -930 -38
-500 -113 -898 -242 -1290 -363 -1098 -1089 -1750 -2058 -1849 -279 -29 -705
2 -903 65 -17 5 -18 -67 -18 -1545 l0 -1551 -735 0 -735 0 0 4798 0 4797 73
45 c114 71 322 173 468 230 479 187 1114 278 1659 239z m5310 -19 c268 -40
518 -115 745 -224 133 -64 269 -144 337 -198 l38 -30 0 -634 0 -635 -84 75
c-500 445 -1140 626 -1625 461 -103 -35 -191 -87 -266 -156 -82 -78 -131 -152
-169 -259 -30 -82 -31 -91 -31 -250 0 -152 3 -171 27 -243 77 -228 251 -400
643 -634 83 -49 227 -135 320 -191 348 -207 593 -390 811 -607 434 -433 598
-840 597 -1485 0 -257 -15 -389 -68 -595 -149 -580 -521 -1038 -1039 -1280
-613 -287 -1432 -281 -2172 15 -112 45 -347 157 -431 206 l-33 19 0 674 c0
658 0 673 19 660 10 -8 55 -42 99 -76 433 -337 1000 -536 1404 -494 458 48
723 300 763 726 8 88 -10 256 -37 343 -90 292 -293 486 -883 842 -590 356
-918 635 -1137 965 -192 288 -274 574 -294 1015 -21 490 123 932 421 1289 328
393 858 664 1405 720 145 15 482 5 640 -19z m-11207 -2592 c3 -2282 4 -2480
20 -2558 65 -326 191 -521 402 -625 119 -59 178 -70 375 -70 248 1 417 37 593
127 l77 40 0 2779 0 2779 735 0 735 0 0 -3194 0 -3194 -87 -57 c-197 -127
-551 -282 -820 -359 -566 -163 -1293 -217 -1818 -136 -901 140 -1444 671
-1620 1585 -62 324 -59 142 -62 2868 l-4 2487 736 0 735 0 3 -2472z"/>
<path d="M8639 12629 c-80 -11 -216 -47 -271 -71 l-48 -20 0 -2264 0 -2263 83
-25 c238 -72 479 -81 694 -25 453 117 751 556 877 1292 61 353 80 673 73 1207
-11 792 -89 1257 -273 1620 -159 314 -386 490 -701 545 -92 16 -338 19 -434 4z"/>
</g>
</svg>
